<svg version="1" xmlns="http://www.w3.org/2000/svg" width="768" height="768" viewBox="0 0 576.000000 576.000000"><path d="M278 33c-2.5.6-5.2 1.3-6 1.7-.8.3-1.7.7-2 .8-6.6 2.3-17.2 10.5-20.7 16.1-1.8 2.9-10.6 17.6-11.8 19.9-4.8 8.7-11.1 19.3-12.3 20.7-.8 1-1.1 1.8-.7 1.8.4 0 .2.8-.6 1.7-.8 1-2.3 3.4-3.3 5.3-1.1 1.9-2.2 3.7-2.5 4-.3.3-1.5 2.3-2.7 4.5-2.1 3.9-11.5 20.5-13.3 23.5-3.9 6.2-15.1 26.3-15.1 27 0 .4-.3 1-.8 1.2-.6.2-9.2 14.9-19.9 33.8-1.1 1.9-3.4 5.9-5.2 8.8-1.7 2.9-3.1 5.7-3.1 6.2 0 .6-.4 1-1 1-.5 0-1 .6-1 1.4 0 .8-.6 2.1-1.2 2.8-.7.7-2.4 3.3-3.7 5.8-1.4 2.5-7.3 12.9-13.3 23.2-5.9 10.3-10.8 19.2-10.8 19.7s-.4 1.1-.9 1.3c-.4.1-2.4 3.1-4.2 6.5-7.6 13.8-16.4 28.8-17.1 29.1-.4.2-.8.8-.8 1.3s-2.1 4.4-4.6 8.7c-2.5 4.2-5 8.6-5.7 9.7-.6 1.1-2.2 3.7-3.4 5.7-1.3 2.1-2 3.8-1.7 3.8.4 0 0 .8-.8 1.7-.8 1-4.4 6.7-7.8 12.8-3.5 6-7.1 12.3-8.1 14-1.1 1.6-2.4 4.1-3.1 5.5-.7 1.4-1.9 3.6-2.9 5-.9 1.4-2.7 4.5-4.1 7-1.4 2.5-3.5 6.1-4.7 8-1.1 1.9-2.4 4.1-2.8 4.9-.3.8-5.1 9-10.5 18.3S34 424.6 34 425.1s-.4.9-1 .9c-.5 0-1 .4-1 1 0 .5-1.4 3.3-3.2 6.2-1.7 2.9-4 6.9-5 8.8-1 1.9-2.8 5.1-3.9 7C7 470.8 2.6 479.2 1.2 484.9c-.4 1.4-.6 6.9-.6 12.1.1 7.2.6 10.9 2.3 15.2 5.4 13.9 16.4 24.7 30.6 29.8 3.5 1.3 37.7 1.5 252 1.7 164.4.2 249.3-.1 252-.8 2.2-.5 5-1.2 6.2-1.4 4-.9 13.8-7.3 18.1-11.7 6.6-6.9 10.4-13.7 12.9-22.9.9-3.6 1.1-19.1.2-21.4-.4-1.1-1-3.1-1.3-4.5-.3-1.4-6.4-12.9-13.7-25.5-7.2-12.7-14.1-24.6-15.1-26.5-4.2-7.3-11.9-20.6-12.8-22-.6-.8-1.4-2.4-2-3.5-.5-1.1-2.1-3.8-3.5-6s-2.9-4.9-3.5-6c-.5-1.1-2.2-4.1-3.7-6.7-1.5-2.6-8.3-14.3-15.1-26-6.7-11.7-12.9-22.4-13.7-23.8-9.2-15.7-17.5-30.3-17.5-30.6 0-.3-1.1-2.1-2.3-4.2-1.3-2-4.2-6.9-6.4-10.7-2.3-3.9-8-13.7-12.7-21.8-4.7-8.1-8.6-15.2-8.6-15.7 0-.6-.4-1-1-1-.5 0-1-.6-1-1.3 0-.7-1.5-3.6-3.4-6.5-1.9-2.8-3.3-5.2-3.1-5.2.4 0-9.1-16.1-10.4-17.7-.6-.7-1.1-1.5-1.1-1.8 0-.4-3.1-6-7-12.6-3.8-6.6-7-12.4-7-13 0-.5-.4-.9-1-.9-.5 0-1-.5-1-1 0-.6-3.8-7.6-8.5-15.6s-8.5-14.8-8.5-15.1c0-.4-.6-1.4-1.4-2.2-.8-.9-2.6-3.9-4.1-6.6-1.4-2.8-3.5-6.5-4.6-8.4-3.2-5.4-16.9-29.2-19.7-34.1-1.4-2.5-4.3-7.3-6.4-10.8-2.1-3.4-3.8-6.4-3.8-6.6 0-.3-1.9-3.7-4.3-7.8-2.4-4-5.5-9.3-6.9-11.8-10.5-18.5-11.7-20.4-16.9-26.1-4.5-4.8-12.1-9.3-19.9-11.9-4.8-1.5-18.6-2.1-24-1zm-4.8 174.9c2.1-.3 3.9-.4 4.2-.2.4.4 17.3.6 19.1.3.6-.1 16.4-.1 16.8 0 .1 0 2.8.2 5.9.4 8.8.4 12.7 5 12.3 14.1-.2 2.7-.6 10.8-.9 18-.4 7.1-.9 16.1-1.1 20-.3 3.8-.7 11.9-1 18-.3 6-.7 14.8-1 19.5-.3 4.7-.7 12.3-1 17-.2 4.7-.7 13.7-1.1 20-.3 6.3-.8 13.7-.9 16.5-.2 2.7-.4 5.9-.4 7.1-.1 2.4-7 9.7-8.6 9-.7-.2-1.7-.1-2.4.3-.7.5-3 .5-5.2.1s-4.2-.3-4.5.1c-.3.5-.9.7-1.3.5-1-.7-8.7-.9-24.6-.7-12.7.2-18.3-.4-21.3-2.2-2.3-1.5-4.4-7-4.7-12.6-.2-3.1-.6-11.5-1-18.6-.3-7.2-.8-16.4-1.1-20.5-.3-4.1-.7-11.6-.9-16.5-.6-12.9-1.4-27.9-1.9-36.5-.8-12.6-1.9-32.2-2.1-38-.4-9.5 4-14.4 13-14.9 2.8-.2 5.1-.4 5.3-.6.1-.1 1.7.1 3.5.4 1.8.4 4.9.4 6.9 0zm29.5 180.4c18.3 6.8 30.1 22.6 30.9 41.2.6 15-3.4 25.1-14 35.7-4 3.9-5.9 5.2-13.6 8.8-5.8 2.8-7 3.1-16 3.6-9.2.5-17.5-1.5-24.8-5.9-5-3-14.2-11-14.2-12.3 0-.3-1-2-2.2-3.7-1.3-1.8-2.3-3.4-2.4-3.7 0-.3-.6-1.8-1.3-3.4-2.2-5.4-3-11-2.7-19.1.8-19.3 13.6-35.7 32.6-41.6 6.8-2.1 21.5-1.9 27.7.4z"/></svg>